<svg xmlns="http://www.w3.org/2000/svg" viewBox="0 0 247.42 75.97"><defs><style>.cls-1{fill:#1d1d1b;}.cls-2{fill:#9d9c9c;}.cls-3{fill:#85a8bb;}</style></defs><title>logo</title><g id="Camada_2" data-name="Camada 2"><g id="Camada_1-2" data-name="Camada 1"><path class="cls-1" d="M44.6,1h.6L61.9,42.31c1.18,2.91,2.16,4.6,2.92,5.1a4.27,4.27,0,0,0,2.36.75v.46H56.36v-.46c1,.07,1.44-.3,1.44-1.12a3,3,0,0,0-.2-1L43,10,28.59,46a3.44,3.44,0,0,0-.28,1.17c0,.73.55,1.06,1.67,1v.46h-7v-.46a6.09,6.09,0,0,0,1.54-.2,3.33,3.33,0,0,0,1.68-1.64c.57-1,.86-1.47.89-1.53L44.6,1Z"/><path class="cls-1" d="M151.43,1h.6l16.7,41.31c1.18,2.91,2.16,4.6,2.92,5.1a4.27,4.27,0,0,0,2.36.75v.46H163.19v-.46c1,.07,1.44-.3,1.44-1.12a3,3,0,0,0-.2-1L149.86,10,135.42,46a3.44,3.44,0,0,0-.28,1.17c0,.73.55,1.06,1.67,1v.46h-7v-.46a6.09,6.09,0,0,0,1.54-.2A3.33,3.33,0,0,0,133,46.32c.57-1,.86-1.47.89-1.53L151.43,1Z"/><path class="cls-2" d="M151.11,75.49v.17H143.8a13.5,13.5,0,0,1-3.69-.45,10.37,10.37,0,0,1-5.89-4.91,8.2,8.2,0,0,1-1-3.88,8.43,8.43,0,0,1,1.27-4.33,9.78,9.78,0,0,1,3.63-3.5,10.53,10.53,0,0,1,5.33-1.35,15.29,15.29,0,0,1,5.65,1.19l.75,2.11h-.16a7.11,7.11,0,0,0-2.6-2,8.26,8.26,0,0,0-3.66-.8,7.19,7.19,0,0,0-5.75,2.64,9.73,9.73,0,0,0-2.24,6.55,10.28,10.28,0,0,0,.37,2.89,7.7,7.7,0,0,0,3.56,4.33A9.2,9.2,0,0,0,142,75a13,13,0,0,0,2.29.2l1,0a5.65,5.65,0,0,0,2.06-.3c.27-.17.41-.59.41-1.26V70.83a1.38,1.38,0,0,0-.33-1.08,1.36,1.36,0,0,0-1-.24v-.17h4.69v.17a1.33,1.33,0,0,0-1.05.31,1.87,1.87,0,0,0-.27,1.18v2.87a2.51,2.51,0,0,0,.23,1.24.89.89,0,0,0,.83.38Zm1.43-17.77v-.18h5.13c1.3,0,2.24,0,2.83.09a4.68,4.68,0,0,1,1.78.57,3.33,3.33,0,0,1,1.39,1.31,4.16,4.16,0,0,1,.46,2,4.62,4.62,0,0,1-.83,2.63A6.66,6.66,0,0,1,161,66.3l1.28,2c.29.49,1,1.57,2.23,3.24a11.21,11.21,0,0,0,2.79,3,3.93,3.93,0,0,0,1.9.54,4.16,4.16,0,0,0,2.09-.7l.08.25a5.84,5.84,0,0,1-3.83,1.21,4.15,4.15,0,0,1-2.71-.93,30.07,30.07,0,0,1-3.94-5.12.08.08,0,0,1,0-.05L159,66.94l-1.61,0h-1.46v6.93a2.59,2.59,0,0,0,.21,1.21c.15.24.51.36,1.07.36v.17h-4.66v-.17c.57,0,.93-.15,1.07-.37a2.9,2.9,0,0,0,.21-1.36V59.35a3.21,3.21,0,0,0-.18-1.16c-.12-.31-.49-.47-1.1-.47Zm3.38.32v8.47h1.89a4.59,4.59,0,0,0,3.32-1.05,3.67,3.67,0,0,0,1.09-2.77,5.37,5.37,0,0,0-1.07-3.16c-.71-1-2-1.49-3.75-1.49Zm23.08-.8a8.66,8.66,0,0,1,6.25,2.32,7.71,7.71,0,0,1,2.42,5.81,10.75,10.75,0,0,1-2.8,7.54A9.65,9.65,0,0,1,177.41,76a8.34,8.34,0,0,1-8.57-8.39A11.22,11.22,0,0,1,170,62.79a9.63,9.63,0,0,1,9-5.55ZM178.93,75a7.55,7.55,0,0,0,3.69-1,7.42,7.42,0,0,0,2.87-2.77,7,7,0,0,0,1-3.63,8.59,8.59,0,0,0-1.41-4.8,10,10,0,0,0-3.66-3.38,8.69,8.69,0,0,0-4.15-1.22,7,7,0,0,0-4.89,2,6.62,6.62,0,0,0-2.2,5.07,9.72,9.72,0,0,0,2.68,6.78,8,8,0,0,0,6,2.93Zm27.45.65H203V72.87a8.15,8.15,0,0,1-6.25,2.92,5.91,5.91,0,0,1-4.27-1.51,5.53,5.53,0,0,1-1.58-4.19V59.23a2.09,2.09,0,0,0-.24-1.25c-.15-.18-.52-.26-1.1-.26v-.18h4.82v.18a1.83,1.83,0,0,0-1.08.24c-.2.16-.31.53-.31,1.13V69c0,2.08.49,3.57,1.46,4.46a4.82,4.82,0,0,0,3.33,1.33A6.77,6.77,0,0,0,203,72.21V59.93a3.72,3.72,0,0,0-.28-1.91,1.18,1.18,0,0,0-.89-.3h-.17v-.18h4.77v.18a1.78,1.78,0,0,0-1.11.29A1.37,1.37,0,0,0,205,59V73.71a5.28,5.28,0,0,0,.08,1.15.87.87,0,0,0,.36.45,1.64,1.64,0,0,0,.9.18v.17Zm2-17.94v-.18h5.16a9.83,9.83,0,0,1,4,.61,4.36,4.36,0,0,1,1.83,1.54A4.5,4.5,0,0,1,220,62.1a4,4,0,0,1-1.59,3.46,6.93,6.93,0,0,1-4.31,1.1v-.17a3.81,3.81,0,0,0,2.8-1.06A3.72,3.72,0,0,0,218,62.65a5.18,5.18,0,0,0-.52-2.38A3.64,3.64,0,0,0,216,58.69a6,6,0,0,0-2.89-.55h-1.3V73.66c0,.88.1,1.41.29,1.57a1.73,1.73,0,0,0,1.1.26v.17h-4.76v-.17c.85,0,1.28-.39,1.28-1.17v-15a2.19,2.19,0,0,0-.25-1.27c-.16-.21-.5-.31-1-.31Z"/><path class="cls-3" d="M0,46.26S129.55,10.4,245.21,14.88c2.83.07,3,4.09.23,4,0,0-104.45-5.83-245.44,27.34Z"/><path class="cls-1" d="M95.05,0,92.83,5.6h-.45a6.19,6.19,0,0,0,.13-1.38A.9.9,0,0,0,92,3.27a4.78,4.78,0,0,0-1.67-.21H78V43.17a9.29,9.29,0,0,0,.41,3.4,1.91,1.91,0,0,0,1.08,1.14,7.45,7.45,0,0,0,2.23.24v.45H69.05V48c1.59-.11,2.59-.41,3-.92a5.69,5.69,0,0,0,.6-3.19V3.06H60.91a8,8,0,0,0-2.32.21c-.36.14-.54.49-.54,1A5,5,0,0,0,58.3,5.6h-.45L55.63,0h.46a2.77,2.77,0,0,0,1.13,1.34,8,8,0,0,0,2.4.22H90.75a11.15,11.15,0,0,0,2.65-.22A1.88,1.88,0,0,0,94.59,0Z"/><path class="cls-1" d="M212,1.82h9v.46a4,4,0,0,0-2.8.88q-.78.8-.78,3.42V49.25L179.91,9.44V44.1a8.65,8.65,0,0,0,.25,2.45,1.88,1.88,0,0,0,.71,1.08,8.34,8.34,0,0,0,2.36.57v.46H174.3V48.2c1.61,0,2.61-.28,3-.85s.59-2,.59-4.11V11.53a17.1,17.1,0,0,0-1.16-6.8C176,3,174.17,2.15,171.37,2.28V1.82h8.79L215.35,39.2V6.12c0-1.78-.32-2.87-.95-3.26A4.62,4.62,0,0,0,212,2.28V1.82Z"/><path class="cls-3" d="M189.16,19.41l-3.51-3.68c2.35-.14,5-.3,7.34-.42l3.55,3.8c-2.31.09-4.93.19-7.38.3Z"/><path class="cls-1" d="M95.76,48.4V48c1.48,0,2.42-.27,2.87-.83a4.71,4.71,0,0,0,.65-2.83V5.93A6.28,6.28,0,0,0,98.77,3c-.35-.6-1.37-.93-3.07-1V1.56h12.57V2a4.93,4.93,0,0,0-2.44.44,2.18,2.18,0,0,0-.92,1.06,10,10,0,0,0-.22,2.73V39.14c0,2.83.67,4.81,2,6s3.68,1.74,7,1.74h5.72q4.14,0,6.06-2c1.28-1.36,2-3.91,2.15-7.67h.46V48.4Z"/></g></g></svg>